<svg width="55" height="55" viewBox="0 0 55 55" xmlns="http://www.w3.org/2000/svg">
<path d="M18.2109 29.5574C18.2109 27.5967 19.6573 25.9896 21.4894 25.9896C23.3215 25.9896 24.8001 27.5967 24.7679 29.5574C24.7679 31.518 23.3215 33.1252 21.4894 33.1252C19.6894 33.1252 18.2109 31.518 18.2109 29.5574Z" fill="#141414"/>
<path d="M29.9428 29.5574C29.9428 27.5967 31.3892 25.9896 33.2213 25.9896C35.0534 25.9896 36.4998 27.5967 36.4998 29.5574C36.4998 31.518 35.0534 33.1252 33.2213 33.1252C31.4214 33.1252 29.9428 31.518 29.9428 29.5574Z" fill="#141414"/>
<path fill-rule="evenodd" clip-rule="evenodd" d="M2 0C0.89543 0 0 0.895432 0 2V53C0 54.1046 0.895432 55 2 55H53C54.1046 55 55 54.1046 55 53V2C55 0.89543 54.1046 0 53 0H2ZM22.7108 14.3862L22.3894 14.0003C22.3894 14.0003 17.9859 13.9041 13.3574 17.3755C13.3574 17.3755 8.72894 25.7646 8.72894 36.1144C8.72894 36.1144 11.4289 40.775 18.5323 41C18.5323 41 19.7216 39.5536 20.6858 38.3322C16.6038 37.1108 15.061 34.5394 15.061 34.5394C15.061 34.5394 15.3824 34.7644 15.9609 35.0858C15.9931 35.118 16.0252 35.1501 16.0895 35.1823C16.1377 35.2144 16.1859 35.2385 16.2341 35.2626C16.2824 35.2867 16.3306 35.3108 16.3788 35.343C17.1823 35.793 17.9859 36.1465 18.7252 36.4358C20.043 36.9501 21.618 37.4644 23.4501 37.8179C25.8607 38.2679 28.6893 38.4286 31.7749 37.8501C33.2856 37.5929 34.8284 37.1429 36.4355 36.4679C37.5605 36.0501 38.8141 35.4394 40.1319 34.5716C40.1319 34.5716 38.5248 37.2072 34.3142 38.3965C35.2784 39.6179 36.4355 41 36.4355 41C43.539 40.775 46.2711 36.1144 46.2711 36.1144C46.2711 25.7646 41.6426 17.3755 41.6426 17.3755C37.4427 14.2255 33.428 14.013 32.7206 14.0007L32.6106 14.0003L32.1606 14.5148C37.6248 16.1862 40.164 18.5969 40.164 18.5969C36.8212 16.7648 33.5427 15.8648 30.4892 15.5112C28.175 15.2541 25.9572 15.3184 23.9965 15.5755C23.8281 15.5755 23.6843 15.6 23.5221 15.6276C23.4985 15.6316 23.4746 15.6357 23.4501 15.6398C22.3251 15.7362 19.593 16.1541 16.1538 17.6647C14.9645 18.2112 14.2574 18.5969 14.2574 18.5969C14.2574 18.5969 16.9252 16.0576 22.7108 14.3862Z" fill="#141414"/>
</svg>
