<svg width="55" height="55" viewBox="0 0 55 55" fill="none" xmlns="http://www.w3.org/2000/svg">
<path fill-rule="evenodd" clip-rule="evenodd" d="M20.1666 28.5833C20.1666 27.7549 20.8382 27.0833 21.6666 27.0833H34.3333C35.1617 27.0833 35.8333 27.7549 35.8333 28.5833C35.8333 29.4117 35.1617 30.0833 34.3333 30.0833H21.6666C20.8382 30.0833 20.1666 29.4117 20.1666 28.5833ZM21.6666 33.4166C20.8382 33.4166 20.1666 34.0882 20.1666 34.9166C20.1666 35.7451 20.8382 36.4166 21.6666 36.4166H34.3333C35.1617 36.4166 35.8333 35.7451 35.8333 34.9166C35.8333 34.0882 35.1617 33.4166 34.3333 33.4166H21.6666ZM20.1666 22.25C20.1666 21.4215 20.8382 20.75 21.6666 20.75H24.8333C25.6617 20.75 26.3333 21.4215 26.3333 22.25C26.3333 23.0784 25.6617 23.75 24.8333 23.75H21.6666C20.8382 23.75 20.1666 23.0784 20.1666 22.25Z" fill="#141414"/>
<path fill-rule="evenodd" clip-rule="evenodd" d="M0 2C0 0.895432 0.89543 0 2 0H53C54.1046 0 55 0.89543 55 2V53C55 54.1046 54.1046 55 53 55H2C0.895432 55 0 54.1046 0 53V2ZM18.4999 9.66663C17.2622 9.66663 16.0753 10.1583 15.2001 11.0335C14.3249 11.9086 13.8333 13.0956 13.8333 14.3333V39.6666C13.8333 40.9043 14.3249 42.0913 15.2001 42.9665C16.0753 43.8416 17.2622 44.3333 18.4999 44.3333H37.4999C38.7376 44.3333 39.9246 43.8416 40.7997 42.9665C41.6749 42.0913 42.1666 40.9043 42.1666 39.6666V20.6666C42.1666 20.2517 41.9981 19.8761 41.7258 19.6045L32.228 10.1067L32.2272 10.106C31.9459 9.82466 31.5644 9.66663 31.1666 9.66663H18.4999Z" fill="#141414"/>
</svg>
