<svg width="55" height="55" viewBox="0 0 55 55" fill="none" xmlns="http://www.w3.org/2000/svg">
<path fill-rule="evenodd" clip-rule="evenodd" d="M21.8429 39.2309C19.1089 39.2309 16.8927 37.0613 16.8927 34.385C16.8927 28.072 20.3688 28.5921 24.1501 29.1578C25.2674 29.325 26.4115 29.4962 27.5003 29.4962C28.5989 29.4962 29.7538 29.3173 30.881 29.1427C34.6499 28.5589 38.1079 28.0233 38.1079 34.385C38.1079 37.0613 35.893 39.2309 33.1577 39.2309H21.8429ZM34 34C34 35.1046 33.3284 36 32.5 36C31.6716 36 31 35.1046 31 34C31 32.8954 31.6716 32 32.5 32C33.3284 32 34 32.8954 34 34ZM22.5 36C23.3284 36 24 35.1046 24 34C24 32.8954 23.3284 32 22.5 32C21.6716 32 21 32.8954 21 34C21 35.1046 21.6716 36 22.5 36Z" fill="#141414"/>
<path fill-rule="evenodd" clip-rule="evenodd" d="M2 0C0.89543 0 0 0.895432 0 2V53C0 54.1046 0.895432 55 2 55H53C54.1046 55 55 54.1046 55 53V2C55 0.89543 54.1046 0 53 0H2ZM40.9776 24.9895L41.0229 25.0199C41.0229 25.0199 44.7652 18.6912 40.1686 15C37.3399 15 33.0134 19.5745 33.0134 19.5745L33.0459 19.5953C29.5242 18.5818 25.5711 18.5749 22.0409 19.5732L22.0394 19.5716C21.9448 19.4722 17.6861 15.0014 14.8885 15.0014C10.3994 18.604 13.8561 24.7098 14.0201 24.9936C12.5803 27.1065 11.7968 29.7468 12.0457 32.9451C12.3866 37.2732 16.0738 42 20.5063 42H34.4914C38.9268 42 42.6126 37.2732 42.9534 32.9451C43.2052 29.744 42.4202 27.1023 40.9776 24.9895Z" fill="#141414"/>
</svg>
