<svg width="55" height="55" viewBox="0 0 55 55" fill="none" xmlns="http://www.w3.org/2000/svg">
<g clip-path="url(#clip0_4_2)">
<path d="M35.915 11.6234H27.61H19.4333C19.1583 11.6234 18.8833 11.6234 18.6083 11.6417C14.5933 12.155 11.7517 15.2534 11.6967 19.305C11.6417 24.8233 11.66 30.3417 11.715 35.86C11.8067 39.9667 15.125 43.285 19.2317 43.3583C24.805 43.4133 30.3783 43.4133 35.97 43.3583C40.095 43.3217 43.4683 39.82 43.4683 35.695V19.5617C43.4683 19.1033 43.45 18.645 43.395 18.1867C42.9367 14.5567 39.6 11.6234 35.915 11.6234ZM27.7017 38.2067C22.4033 38.225 18.095 33.935 18.0767 28.6367C18.0767 28.6 18.0767 28.5817 18.0767 28.545C18.0583 23.2467 22.3483 18.9567 27.6467 18.9384C27.665 18.9384 27.6833 18.9384 27.7017 18.9384C33.3667 18.9384 37.4183 23.595 37.3633 28.7283C37.29 33.9167 32.9633 38.2067 27.7017 38.2067ZM37.8217 19.0484C37.8033 19.0484 37.785 19.0484 37.7667 19.0484C36.8317 19.0484 36.08 18.2783 36.08 17.3434C36.0983 16.4084 36.85 15.6567 37.7667 15.6384C38.72 15.6384 39.49 16.39 39.49 17.3434C39.5083 18.2967 38.7567 19.0484 37.8217 19.0484Z" fill="#141414"/>
<path d="M-0.110001 -0.109985V55.1284H55.1283V-0.109985H-0.110001ZM46.0717 35.75C46.0533 40.92 42.185 45.265 37.0517 45.8884C36.2633 45.9617 35.475 45.9984 34.6867 45.98C29.4433 45.98 24.1817 46.0534 18.9383 45.9617C15.6383 45.8884 13.0167 44.3484 11.055 41.6717C9.68 39.765 9.11167 37.6384 9.11167 35.31C9.13 30.1217 9.14833 24.9334 9.11167 19.745C9.09333 17.1784 9.79 14.85 11.4217 12.87C13.4383 10.4133 16.06 9.09335 19.25 9.05668C22.0183 9.02002 24.805 9.05668 27.5733 9.05668C30.525 9.05668 33.4767 8.98335 36.41 9.07502C41.14 9.24002 45.265 13.0534 45.925 17.7467C45.9983 18.26 46.035 18.7734 46.035 19.2867C46.0717 24.75 46.0717 30.25 46.0717 35.75Z" fill="#141414"/>
<path d="M27.7567 21.56C23.87 21.5417 20.6983 24.6767 20.6617 28.5634C20.625 32.4317 23.7417 35.6034 27.6283 35.64C27.6467 35.64 27.665 35.64 27.6833 35.64C31.57 35.64 34.76 32.4867 34.76 28.655C34.7783 24.7684 31.6433 21.5783 27.7567 21.56Z" fill="#141414"/>
</g>
<defs>
<clipPath id="clip0_4_2">
<rect width="55" height="55" rx="2" fill="white"/>
</clipPath>
</defs>
</svg>
