<svg width="55" height="55" viewBox="0 0 55 55" fill="none" xmlns="http://www.w3.org/2000/svg">
<path fill-rule="evenodd" clip-rule="evenodd" d="M2 0C0.89543 0 0 0.895432 0 2V53C0 54.1046 0.895432 55 2 55H53C54.1046 55 55 54.1046 55 53V2C55 0.89543 54.1046 0 53 0H2ZM20.4968 23.0123V41.7947H14.2539V23.0123H20.4968ZM20.9074 17.2032C20.9074 19.0056 19.5524 20.4479 17.3754 20.4479H17.3347C15.2396 20.4479 13.8849 19.0056 13.8849 17.2032C13.8849 15.3602 15.2811 13.9579 17.4167 13.9579C19.5524 13.9579 20.8668 15.3602 20.9074 17.2032ZM23.9512 41.7947H30.1941V31.3058C30.1941 30.7444 30.2347 30.1837 30.3995 29.7824C30.8508 28.6608 31.878 27.4992 33.6027 27.4992C35.8617 27.4992 36.7653 29.2216 36.7653 31.7465V41.7947H43.0077V31.0251C43.0077 25.256 39.9278 22.5716 35.8204 22.5716C32.5088 22.5716 31.0239 24.3917 30.1943 25.6715V23.0123H23.9514C24.0333 24.7747 23.9512 41.7947 23.9512 41.7947Z" fill="#141414"/>
</svg>
