<svg width="55" height="55" viewBox="0 0 55 55" fill="none" xmlns="http://www.w3.org/2000/svg">
<path fill-rule="evenodd" clip-rule="evenodd" d="M2 0C0.89543 0 0 0.895432 0 2V53C0 54.1046 0.895432 55 2 55H53C54.1046 55 55 54.1046 55 53V2C55 0.89543 54.1046 0 53 0H2ZM14.4972 18.3968C14.7997 18.6778 14.9542 19.0904 14.9132 19.5079V34.5397C15.0029 35.0819 14.8371 35.6358 14.4664 36.0317L11 40.3651V40.9365H20.8291V40.3651L17.3627 36.0317C16.9894 35.6365 16.8132 35.0862 16.8852 34.5397V21.5397L25.5126 40.9365H26.514L33.9244 21.5397V37C33.9244 37.4127 33.9244 37.4921 33.6625 37.7619L30.9972 40.4286V41H43.9384V40.4286L41.3655 37.8254C41.1384 37.647 41.0258 37.3537 41.0728 37.0635V17.9365C41.0258 17.6463 41.1384 17.353 41.3655 17.1746L44 14.5714V14H34.8796L28.3782 30.7143L20.9832 14H11.416V14.5714L14.4972 18.3968Z" fill="#141414"/>
</svg>
