<svg width="55" height="55" viewBox="0 0 55 55" fill="none" xmlns="http://www.w3.org/2000/svg">
<path d="M35.2025 33.8566C36.0217 33.9702 36.8324 34.0826 36.9615 34.9076C37.3049 37.1035 33.0486 36.2862 32.0756 35.8094C30.5504 35.0613 29.6246 33.3521 30.0202 31.6645C30.173 31.0122 30.9991 29.3212 31.7768 27.7295C32.5046 26.24 33.1901 24.837 33.2412 24.454C33.3489 23.646 32.9177 23.5768 32.6482 23.5633C32.3008 23.5453 32.0268 23.7147 31.6857 24.2293C31.4722 24.5523 29.7438 27.9827 28.5881 30.2763C28.0652 31.3141 27.6593 32.1196 27.5645 32.2985C27.0204 33.3248 26.3355 33.5722 25.6476 33.5355C24.6444 33.4831 24.1852 32.9452 24.3301 31.9783C24.3693 31.7175 24.8577 30.5203 25.3864 29.2244C26.0111 27.693 26.692 26.0238 26.7545 25.5991C26.8254 25.1142 26.7294 24.5996 26.2487 24.3527C25.7675 24.1059 25.2001 24.4843 25.0301 24.7707C24.9186 24.9588 24.1462 26.9228 23.3311 28.9958L23.3306 28.9969C22.4328 31.2801 21.483 33.6955 21.307 34.0152C20.7262 35.0718 20.1146 35.4077 19.1951 35.4514C17.0205 35.5544 15.408 33.7655 16.1191 31.5708C16.1779 31.3894 16.298 30.9865 16.4613 30.4384C17.1779 28.0332 18.7275 22.8326 19.5915 21.2965C20.3043 20.0286 22.2841 19.0657 23.6568 19.6601C24.1079 19.8554 24.6692 20.125 25.0937 20.3289C25.3384 20.4464 25.5377 20.5421 25.6441 20.5891C26.2315 20.8496 26.8564 20.2641 27.1931 19.9486C27.241 19.9037 27.2831 19.8643 27.3184 19.8335C27.3515 19.8047 27.3845 19.7758 27.4174 19.7468C27.6664 19.5279 27.9141 19.3102 28.2192 19.1792C28.5642 19.0313 29.1072 18.9696 29.5267 19.0313C29.9458 19.0931 30.196 19.2514 30.3531 19.3772C30.6109 19.5829 30.7877 19.7525 31.009 19.9648C31.0525 20.0065 31.0978 20.0499 31.1457 20.0955C31.5482 20.4784 31.8473 20.2975 32.0639 20.1665C32.0834 20.1547 32.1022 20.1433 32.1204 20.1328L32.1314 20.1264C32.5074 19.9075 32.8103 19.7312 33.9274 19.7514C35.0883 19.7718 36.4226 20.1869 36.6996 22.1679C36.8494 23.2366 36.0046 25.1232 35.1271 27.0825C34.1978 29.1576 33.2321 31.3141 33.3728 32.6669C33.4717 33.6166 34.3418 33.7372 35.2025 33.8566Z" fill="#141414"/>
<path fill-rule="evenodd" clip-rule="evenodd" d="M0 2C0 0.895432 0.89543 0 2 0H53C54.1046 0 55 0.89543 55 2V53C55 54.1046 54.1046 55 53 55H2C0.895432 55 0 54.1046 0 53V2ZM18.6027 6.02212C19.1287 5.90858 19.6473 6.2433 19.7607 6.76958C19.8748 7.2958 19.5402 7.81511 19.0135 7.92865C18.4875 8.04212 17.969 7.7074 17.8555 7.18112C17.7415 6.65429 18.0761 6.13566 18.6027 6.02212ZM32.1838 8.0579C31.6665 7.19629 30.5492 6.91686 29.6885 7.43441C28.8272 7.95134 28.5485 9.06909 29.0652 9.93063C29.5826 10.7922 30.6999 11.0711 31.5606 10.5541C32.4218 10.0366 32.7006 8.9189 32.1838 8.0579ZM39.6872 15.7946C40.7964 17.4001 41.2468 19.2607 41.1089 21.0659C42.0504 21.3465 42.9134 21.9147 43.5234 22.7803C44.8915 24.7201 44.5079 27.3478 42.7272 28.8503C44.9456 32.3869 44.0151 37.0744 40.5473 39.4716C39.1018 40.4711 37.4415 40.8857 35.811 40.8257C35.5008 42.0407 34.7897 43.1589 33.6776 43.9274C31.5937 45.3681 28.8767 45.1016 27.0669 43.4855C27.0169 43.5248 26.9707 43.5672 26.9246 43.6096C26.8628 43.6664 26.801 43.7232 26.73 43.7725C23.4828 46.0172 19.0304 45.2035 16.7865 41.9545C15.966 40.7669 15.5633 39.4181 15.5301 38.075C13.7395 37.7805 12.0722 36.7891 11.0108 35.1434C9.22137 32.3677 9.76433 28.7747 12.1194 26.6167C10.3841 23.8218 11.1056 20.1357 13.8408 18.2448C14.6682 17.6726 15.5877 17.3606 16.5199 17.2342C17.1636 15.5402 18.3059 14.0161 19.9092 12.9078C23.0766 10.7183 27.1123 10.8004 30.1633 12.7558C33.5781 11.5169 37.5253 12.665 39.6872 15.7946ZM45.0276 19.9511C45.7318 19.4644 45.9081 18.4992 45.4216 17.7949C44.9351 17.0905 43.9703 16.9141 43.2661 17.4007C42.562 17.8874 42.3857 18.8526 42.8722 19.557C43.3587 20.2614 44.3235 20.4378 45.0276 19.9511ZM48.9621 22.8036C49.4247 22.7035 49.8803 22.998 49.9805 23.4609C50.0806 23.9237 49.7861 24.3801 49.3234 24.4802C48.8608 24.5798 48.4046 24.2858 48.3045 23.8229C48.205 23.3596 48.4989 22.9038 48.9621 22.8036ZM46.657 28.1355C47.2791 28.0016 47.8925 28.3969 48.0269 29.0198C48.1614 29.6421 47.7656 30.2556 47.1435 30.3901C46.5208 30.524 45.9075 30.1288 45.7737 29.5059C45.6392 28.8835 46.0349 28.2699 46.657 28.1355ZM15.6116 15.312C16.2441 14.8748 16.4024 14.0074 15.9654 13.3746C15.5283 12.7418 14.6613 12.5835 14.0287 13.0207C13.3968 13.4579 13.2379 14.3253 13.6749 14.958C14.1119 15.5903 14.979 15.7492 15.6116 15.312ZM8.87045 24.5903C9.70557 25.1631 9.91792 26.3047 9.34531 27.14C8.7727 27.9754 7.63154 28.1879 6.79649 27.6151C5.96137 27.0422 5.74902 25.9007 6.32163 25.0653C6.89424 24.2299 8.0354 24.0174 8.87045 24.5903ZM12.6251 40.332C12.724 40.7925 13.1779 41.0854 13.6377 40.9858C14.098 40.8863 14.3907 40.4327 14.2912 39.9723C14.1917 39.5118 13.7383 39.2195 13.278 39.3185C12.8183 39.4181 12.5256 39.8716 12.6251 40.332ZM25.9397 47.4883C25.5678 46.9498 25.7028 46.2117 26.2411 45.8397C26.7794 45.4677 27.5173 45.6022 27.8891 46.1407C28.261 46.6791 28.126 47.4173 27.5877 47.7899C27.0494 48.1619 26.3116 48.0268 25.9397 47.4883ZM37.4497 42.4842C36.5774 43.0873 36.3586 44.2837 36.9615 45.1563C37.5643 46.0289 38.7603 46.2478 39.6331 45.6447C40.5054 45.0416 40.7237 43.8453 40.1208 42.9726C39.5179 42.0995 38.322 41.8811 37.4497 42.4842Z" fill="#141414"/>
</svg>
