<svg width="55" height="55" viewBox="0 0 55 55" fill="none" xmlns="http://www.w3.org/2000/svg">
<path fill-rule="evenodd" clip-rule="evenodd" d="M0 2C0 0.895432 0.89543 0 2 0H53C54.1046 0 55 0.89543 55 2V53C55 54.1046 54.1046 55 53 55H2C0.895432 55 0 54.1046 0 53V2ZM30.6163 11.5863C30.6163 13.0149 29.4447 14.1724 28.0007 14.1724C26.5553 14.1724 25.3837 13.0149 25.3837 11.5863C25.3837 10.158 26.5553 9 28.0007 9C29.4447 9 30.6163 10.158 30.6163 11.5863ZM14.6047 26.3271C14.6047 27.384 13.7385 28.2414 12.6686 28.2414C11.5996 28.2414 10.7326 27.384 10.7326 26.3271C10.7326 25.2702 11.5996 24.4138 12.6686 24.4138C13.7385 24.4138 14.6047 25.2702 14.6047 26.3271ZM43.4365 28.2414C44.505 28.2414 45.3721 27.384 45.3721 26.3271C45.3721 25.2702 44.505 24.4138 43.4365 24.4138C42.3671 24.4138 41.5 25.2702 41.5 26.3271C41.5 27.384 42.3671 28.2414 43.4365 28.2414ZM28.0526 35.7931C29.1214 35.7931 29.9884 34.9359 29.9884 33.8791C29.9884 32.8223 29.1214 31.9655 28.0526 31.9655C26.9832 31.9655 26.1163 32.8223 26.1163 33.8791C26.1163 34.9359 26.9832 35.7931 28.0526 35.7931ZM20.3079 32.069C21.3777 32.069 22.2442 31.2116 22.2442 30.1552C22.2442 29.0978 21.3777 28.2414 20.3079 28.2414C19.2386 28.2414 18.3721 29.0978 18.3721 30.1552C18.3721 31.2116 19.2386 32.069 20.3079 32.069ZM35.6921 32.069C36.761 32.069 37.6279 31.2116 37.6279 30.1552C37.6279 29.0978 36.761 28.2414 35.6921 28.2414C34.6223 28.2414 33.7558 29.0978 33.7558 30.1552C33.7558 31.2116 34.6223 32.069 35.6921 32.069ZM12.6693 33.4138C13.3916 33.4138 13.9767 32.8341 13.9767 32.1212C13.9767 31.4064 13.3916 30.8276 12.6693 30.8276C11.9461 30.8276 11.3605 31.4064 11.3605 32.1212C11.3605 32.8341 11.9461 33.4138 12.6693 33.4138ZM43.4361 33.4138C44.1582 33.4138 44.7442 32.8341 44.7442 32.1212C44.7442 31.4064 44.1582 30.8276 43.4361 30.8276C42.7134 30.8276 42.1279 31.4064 42.1279 32.1212C42.1279 32.8341 42.7134 33.4138 43.4361 33.4138ZM28.0528 41.069C28.7742 41.069 29.3605 40.4892 29.3605 39.7749C29.3605 39.0611 28.7742 38.4828 28.0528 38.4828C27.3309 38.4828 26.7442 39.0611 26.7442 39.7749C26.7442 40.4892 27.3309 41.069 28.0528 41.069ZM20.3086 37.2414C21.0308 37.2414 21.6163 36.6628 21.6163 35.9487C21.6163 35.2342 21.0308 34.6552 20.3086 34.6552C19.586 34.6552 19 35.2342 19 35.9487C19 36.6628 19.586 37.2414 20.3086 37.2414ZM35.6926 37.2414C36.4136 37.2414 37 36.6628 37 35.9487C37 35.2342 36.4136 34.6552 35.6926 34.6552C34.9696 34.6552 34.3837 35.2342 34.3837 35.9487C34.3837 36.6628 34.9696 37.2414 35.6926 37.2414ZM12.6688 37.3448C13.0445 37.3448 13.3488 37.0438 13.3488 36.6717C13.3488 36.3006 13.0445 36 12.6688 36C12.2927 36 11.9884 36.3006 11.9884 36.6717C11.9884 37.0438 12.2927 37.3448 12.6688 37.3448ZM43.4363 37.3448C43.8112 37.3448 44.1163 37.0438 44.1163 36.6717C44.1163 36.3006 43.8112 36 43.4363 36C43.0599 36 42.7558 36.3006 42.7558 36.6717C42.7558 37.0438 43.0599 37.3448 43.4363 37.3448ZM28.0526 45C28.4275 45 28.7326 44.6986 28.7326 44.3271C28.7326 43.9557 28.4275 43.6552 28.0526 43.6552C27.6767 43.6552 27.3721 43.9557 27.3721 44.3271C27.3721 44.6986 27.6767 45 28.0526 45ZM20.3079 41.1724C20.6835 41.1724 20.9884 40.871 20.9884 40.5C20.9884 40.1281 20.6835 39.8276 20.3079 39.8276C19.9327 39.8276 19.6279 40.1281 19.6279 40.5C19.6279 40.871 19.9327 41.1724 20.3079 41.1724ZM35.6921 41.1724C36.067 41.1724 36.3721 40.871 36.3721 40.5C36.3721 40.1281 36.067 39.8276 35.6921 39.8276C35.3152 39.8276 35.0116 40.1281 35.0116 40.5C35.0116 40.871 35.3152 41.1724 35.6921 41.1724ZM30.6163 19.2414C30.6163 20.6698 29.4447 21.8276 28.0007 21.8276C26.5553 21.8276 25.3837 20.6698 25.3837 19.2414C25.3837 17.8134 26.5553 16.6552 28.0007 16.6552C29.4447 16.6552 30.6163 17.8134 30.6163 19.2414ZM30.6163 26.7936C30.6163 28.2213 29.4447 29.3793 28.0007 29.3793C26.5553 29.3793 25.3837 28.2213 25.3837 26.7936C25.3837 25.3649 26.5553 24.2069 28.0007 24.2069C29.4447 24.2069 30.6163 25.3649 30.6163 26.7936ZM46 19.2414C46 20.6698 44.8287 21.8276 43.384 21.8276C41.9388 21.8276 40.7674 20.6698 40.7674 19.2414C40.7674 17.8134 41.9388 16.6552 43.384 16.6552C44.8287 16.6552 46 17.8134 46 19.2414ZM15.2326 19.2414C15.2326 20.6698 14.0615 21.8276 12.6165 21.8276C11.1715 21.8276 10 20.6698 10 19.2414C10 17.8134 11.1715 16.6552 12.6165 16.6552C14.0615 16.6552 15.2326 17.8134 15.2326 19.2414ZM22.9767 15.4138C22.9767 16.842 21.8056 18 20.3605 18C18.9154 18 17.7442 16.842 17.7442 15.4138C17.7442 13.9846 18.9154 12.8276 20.3605 12.8276C21.8056 12.8276 22.9767 13.9846 22.9767 15.4138ZM22.9767 22.9653C22.9767 24.3936 21.8056 25.5517 20.3605 25.5517C18.9154 25.5517 17.7442 24.3936 17.7442 22.9653C17.7442 21.5374 18.9154 20.3793 20.3605 20.3793C21.8056 20.3793 22.9767 21.5374 22.9767 22.9653ZM38.3605 15.4138C38.3605 16.842 37.1889 18 35.744 18C34.299 18 33.1279 16.842 33.1279 15.4138C33.1279 13.9846 34.299 12.8276 35.744 12.8276C37.1889 12.8276 38.3605 13.9846 38.3605 15.4138ZM38.3605 22.9653C38.3605 24.3936 37.1889 25.5517 35.744 25.5517C34.299 25.5517 33.1279 24.3936 33.1279 22.9653C33.1279 21.5374 34.299 20.3793 35.744 20.3793C37.1889 20.3793 38.3605 21.5374 38.3605 22.9653Z" fill="#141414"/>
</svg>
