<svg width="55" height="55" viewBox="0 0 55 55" fill="none" xmlns="http://www.w3.org/2000/svg">
<path d="M27.9999 25.2417C26.9966 25.2417 26.1833 26.0551 26.1833 27.0584C26.1833 28.0617 26.9966 28.8751 27.9999 28.8751C29.0032 28.8751 29.8166 28.0617 29.8166 27.0584C29.8166 26.0551 29.0032 25.2417 27.9999 25.2417Z" fill="#141414"/>
<path fill-rule="evenodd" clip-rule="evenodd" d="M19.5499 27.0584C19.5499 22.3917 23.3331 18.6085 27.9999 18.6085C32.6666 18.6085 36.4498 22.3917 36.4498 27.0584C36.4498 31.7252 32.6666 35.5084 27.9999 35.5084C23.3331 35.5084 19.5499 31.7252 19.5499 27.0584ZM23.1833 27.0584C23.1833 24.3982 25.3398 22.2417 27.9999 22.2417C30.6601 22.2417 32.8166 24.3982 32.8166 27.0584C32.8166 29.7186 30.6601 31.8751 27.9999 31.8751C25.3398 31.8751 23.1833 29.7186 23.1833 27.0584Z" fill="#141414"/>
<path fill-rule="evenodd" clip-rule="evenodd" d="M12.9167 27.0584C12.9167 18.7281 19.6698 11.9751 28 11.9751C36.3303 11.9751 43.0833 18.7281 43.0833 27.0584C43.0833 35.3886 36.3303 42.1416 28 42.1416C19.6698 42.1416 12.9167 35.3886 12.9167 27.0584ZM27.9999 15.6085C21.6762 15.6085 16.5499 20.7348 16.5499 27.0584C16.5499 33.3821 21.6762 38.5084 27.9999 38.5084C34.3235 38.5084 39.4498 33.3821 39.4498 27.0584C39.4498 20.7348 34.3235 15.6085 27.9999 15.6085Z" fill="#141414"/>
<path fill-rule="evenodd" clip-rule="evenodd" d="M2 0C0.89543 0 0 0.895432 0 2V53C0 54.1046 0.895432 55 2 55H53C54.1046 55 55 54.1046 55 53V2C55 0.89543 54.1046 0 53 0H2ZM28 8.9751C18.0129 8.9751 9.91675 17.0713 9.91675 27.0584C9.91675 37.0455 18.0129 45.1416 28 45.1416C37.9871 45.1416 46.0833 37.0455 46.0833 27.0584C46.0833 17.0713 37.9871 8.9751 28 8.9751Z" fill="#141414"/>
</svg>
