<svg width="55" height="55" viewBox="0 0 55 55" fill="none" xmlns="http://www.w3.org/2000/svg">
<path d="M24.5059 29.6873C24.5059 30.3791 24.2635 30.9783 23.7744 31.4851C23.2853 31.9918 22.6948 32.243 22.003 32.243C21.3112 32.243 20.7208 31.9918 20.2317 31.4851C19.7425 30.9783 19.5002 30.3791 19.5002 29.6873C19.5002 28.9955 19.7425 28.405 20.2317 27.9159C20.7208 27.4268 21.3112 27.1844 22.003 27.1844C22.6948 27.1844 23.2853 27.4268 23.7744 27.9159C24.2635 28.405 24.5059 28.9955 24.5059 29.6873Z" fill="#141414"/>
<path d="M32.3492 35.8739C32.4814 35.7417 32.6445 35.6756 32.8428 35.6756C33.041 35.6756 33.2041 35.7417 33.3363 35.8739C33.4685 36.006 33.5346 36.1735 33.5346 36.3806C33.5346 36.5877 33.4685 36.7551 33.3363 36.8873C32.1201 38.0859 30.1681 38.6851 27.489 38.6851H27.4317C24.7526 38.6851 22.8138 38.0859 21.6109 36.8873C21.461 36.7551 21.3861 36.5877 21.3861 36.3806C21.3861 36.1735 21.461 36.006 21.6109 35.8739C21.743 35.7417 21.9061 35.6756 22.1044 35.6756C22.3027 35.6756 22.4657 35.7417 22.5979 35.8739C23.5144 36.83 25.1272 37.3059 27.4317 37.3059H27.489C29.7715 37.3059 31.3931 36.83 32.3492 35.8739Z" fill="#141414"/>
<path d="M32.9397 27.1844C33.6315 27.1844 34.222 27.4268 34.7111 27.9159C35.2002 28.405 35.4425 28.9955 35.4425 29.6873C35.4425 30.3791 35.2002 30.9783 34.7111 31.4851C34.222 31.9918 33.6315 32.243 32.9397 32.243C32.2479 32.243 31.6574 31.9918 31.1683 31.4851C30.6792 30.9783 30.4369 30.3791 30.4369 29.6873C30.4369 28.9955 30.6792 28.405 31.1683 27.9159C31.6574 27.4312 32.2479 27.1844 32.9397 27.1844Z" fill="#141414"/>
<path fill-rule="evenodd" clip-rule="evenodd" d="M2 0C0.89543 0 0 0.895432 0 2V53C0 54.1046 0.895432 55 2 55H53C54.1046 55 55 54.1046 55 53V2C55 0.89543 54.1046 0 53 0H2ZM44.3831 28.8897C43.9689 29.4802 43.4357 29.9032 42.7792 30.1676C42.8937 30.6743 42.951 31.1766 42.951 31.6834C42.951 33.5208 42.2592 35.2217 40.8712 36.786C39.4832 38.3502 37.5928 39.5884 35.2046 40.4962C32.8119 41.4039 30.2121 41.8577 27.4009 41.8577C24.5719 41.8577 21.959 41.4039 19.5707 40.4962C17.178 39.5884 15.2921 38.3502 13.9041 36.786C12.5161 35.2217 11.8242 33.5208 11.8242 31.6834C11.8242 31.137 11.8903 30.6302 12.0225 30.1632C11.4056 29.8812 10.9121 29.4581 10.5464 28.8853C10.1807 28.3125 10 27.678 10 26.9862C10 26.03 10.3393 25.2104 11.0135 24.5274C11.6876 23.8444 12.5028 23.5007 13.459 23.5007C14.5254 23.5007 15.3978 23.9017 16.072 24.708C19.0155 22.6635 22.5847 21.6059 26.784 21.531L29.4542 13.0399C29.5071 12.8504 29.6173 12.7138 29.7759 12.6301C29.9389 12.5464 30.102 12.52 30.2694 12.5596L36.6499 14.0798C36.9319 13.4629 37.3505 12.9606 37.9145 12.5772C38.4741 12.1939 39.0954 12 39.7696 12C40.7082 12 41.5145 12.3393 42.1887 13.0135C42.8629 13.6876 43.2022 14.494 43.2022 15.4326C43.2022 16.3711 42.8629 17.1731 42.1887 17.8385C41.5145 18.5038 40.7082 18.8343 39.7696 18.8343C38.8531 18.8343 38.0599 18.5082 37.3946 17.8517C36.7292 17.1951 36.3855 16.402 36.3679 15.4634L30.5779 14.0842L28.2425 21.5354C32.4418 21.6853 35.9581 22.7648 38.787 24.7697C39.4964 23.8708 40.4174 23.4214 41.541 23.4214C42.4972 23.4214 43.3124 23.7651 43.9865 24.4481C44.6607 25.1311 45 25.9506 45 26.9068C45 27.6383 44.7973 28.2993 44.3831 28.8897Z" fill="#141414"/>
</svg>
