<svg width="55" height="55" viewBox="0 0 55 55" fill="none" xmlns="http://www.w3.org/2000/svg">
<path fill-rule="evenodd" clip-rule="evenodd" d="M2 0C0.89543 0 0 0.895432 0 2V53C0 54.1046 0.895432 55 2 55H53C54.1046 55 55 54.1046 55 53V2C55 0.89543 54.1046 0 53 0H2ZM30.6511 17.1606L9.20707 26.0651C5.43366 27.5492 7.64249 28.9405 7.64249 28.9405C7.64249 28.9405 10.8637 30.0536 13.6247 30.8884C16.3857 31.7232 17.8583 30.7956 17.8583 30.7956L30.8351 21.9839C35.4368 18.8302 34.3324 21.4273 33.228 22.5404C30.8351 24.952 26.8777 28.755 23.5644 31.8159C22.0919 33.1145 22.8281 34.2276 23.4724 34.7841C25.3452 36.3812 29.7551 39.2852 31.7599 40.6054C32.3166 40.972 32.6878 41.2165 32.7678 41.277C33.228 41.648 35.805 43.3176 37.3696 42.9466C38.9341 42.5755 39.1182 40.4422 39.1182 40.4422L41.4191 25.8796C41.6235 24.5143 41.828 23.1777 42.0187 21.9313C42.5146 18.6895 42.9172 16.0579 42.9837 15.12C43.2598 11.9663 39.9465 13.2648 39.9465 13.2648C39.9465 13.2648 32.7678 16.233 30.6511 17.1606Z" fill="#141414"/>
</svg>
