<svg width="55" height="55" viewBox="0 0 55 55" fill="none" xmlns="http://www.w3.org/2000/svg">
<path fill-rule="evenodd" clip-rule="evenodd" d="M2 0C0.89543 0 0 0.895432 0 2V53C0 54.1046 0.895432 55 2 55H53C54.1046 55 55 54.1046 55 53V2C55 0.89543 54.1046 0 53 0H2ZM27.4548 23.1193L27.3805 21.8979V21.8992C27.1574 18.7355 29.1132 15.8463 32.2054 14.7266C33.3445 14.3278 35.2742 14.2776 36.5372 14.6262C37.0317 14.7755 37.9724 15.2733 38.6391 15.7222L39.8525 16.5435L41.1886 16.121C41.9323 15.8965 42.9213 15.5228 43.3675 15.2733C43.7876 15.0501 44.1595 14.9247 44.1595 14.9999C44.1595 15.4225 43.2435 16.8671 42.4763 17.6646C41.4365 18.7856 41.7339 18.8847 43.8372 18.1373C45.0989 17.7147 45.125 17.7147 44.8771 18.1875C44.7283 18.437 43.9611 19.3085 43.1444 20.1048C41.7587 21.4753 41.6844 21.6246 41.6844 22.7694C41.6844 24.5388 40.8428 28.2241 40.0012 30.2417C38.4421 34.0274 35.1006 37.936 31.7605 39.9047C27.0595 42.6684 20.7968 43.3656 15.5256 41.748C13.7694 41.1988 10.7502 39.8044 10.7502 39.5561C10.7502 39.4821 11.6662 39.3818 12.7791 39.3567C15.1183 39.3027 17.403 38.6676 19.4111 37.5134L20.7485 36.7172L19.2141 36.1943C17.0365 35.4469 15.082 33.7277 14.5862 32.1089C14.4387 31.5872 14.487 31.5622 15.874 31.5622L17.3092 31.5371L16.0958 30.964C14.6606 30.2417 13.3493 29.0216 12.7047 27.7765C12.235 26.8799 11.6414 24.614 11.8149 24.4384C11.8645 24.3645 12.3838 24.5124 12.9774 24.7131C14.6853 25.335 14.9072 25.1858 13.9182 24.14C12.0615 22.2478 11.4926 19.4327 12.3838 16.768L12.8039 15.573L14.4374 17.1918C17.7789 20.4534 21.7127 22.397 26.2167 22.9688L27.4548 23.1193Z" fill="#141414"/>
</svg>
