<svg width="55" height="55" viewBox="0 0 55 55" fill="none" xmlns="http://www.w3.org/2000/svg">
<path fill-rule="evenodd" clip-rule="evenodd" d="M13.0541 27.5C13.0541 19.5352 19.5349 13.0541 27.5008 13.0541C35.4643 13.0541 41.9459 19.536 41.9459 27.5C41.9459 35.464 35.4643 41.9459 27.5008 41.9459C19.5349 41.9459 13.0541 35.4648 13.0541 27.5ZM41.1662 27.5604C41.1662 30.7527 40.1066 33.696 38.3406 36.048C37.8408 35.6492 37.3093 34.5703 37.8092 33.4523C38.314 32.3274 38.4456 29.7232 38.329 28.7092C38.219 27.6968 37.7042 25.2579 36.3064 25.234C34.9102 25.2136 33.9523 24.7415 33.1226 23.0474C32.1865 21.1304 33.2243 20.0559 34.0889 19.1608C34.8139 18.4102 35.417 17.7858 34.632 16.8965C34.4846 16.7284 34.1489 16.8746 33.7436 17.051C32.8253 17.4508 31.5497 18.0061 31.2966 15.4154C31.2733 15.1478 31.5215 14.7473 31.8564 14.3315C37.261 16.1892 41.1662 21.4164 41.1662 27.5604ZM24.786 14.5172C25.2051 14.2738 25.6278 14.0283 25.837 13.6384C20.721 14.3166 16.477 17.6371 14.6728 22.1108C14.8353 22.1271 15.0335 22.1414 15.2534 22.1574C16.4317 22.2428 18.2323 22.3733 18.4936 23.0774C18.6429 23.4731 18.4091 23.8758 18.12 24.3738C17.7952 24.9333 17.4005 25.6131 17.4005 26.5387C17.4005 27.5784 18.1465 28.0547 18.8395 28.497C19.4404 28.8806 20.0013 29.2387 20.0013 29.9166C20.0013 30.8431 20.2273 31.8679 20.3927 32.6177C20.4881 33.0504 20.5633 33.3916 20.5633 33.5696C20.5633 34.0562 22.7341 36.7411 23.5411 36.7411C24.1167 36.7411 23.9556 35.2015 23.8337 34.0352C23.7853 33.5732 23.7431 33.1698 23.7553 32.9439C23.7776 32.4295 24.1391 30.8552 24.2436 30.4867C24.6412 29.0511 25.6654 28.5197 26.5812 28.0445C27.2675 27.6884 27.8929 27.3638 28.1483 26.714C29.7745 22.5905 25.5845 21.8282 23.8994 21.5217C23.6352 21.4736 23.4325 21.4368 23.3235 21.3999C22.5217 21.1312 21.1561 21.1214 20.6387 21.2852C20.1213 21.4458 19.0864 20.6169 19.0864 19.9125C19.0864 19.506 19.7687 18.8677 20.4681 18.2135C20.9807 17.734 21.5024 17.246 21.7712 16.8344C22.1354 16.2723 22.4573 16.0819 22.8902 15.8259C23.2066 15.6388 23.5824 15.4165 24.0774 14.9882C24.2802 14.811 24.5324 14.6645 24.786 14.5172ZM23.0985 40.7441C23.4462 40.5339 23.664 40.2981 23.8543 40.0921C24.1213 39.8029 24.3343 39.5722 24.7767 39.553C25.3466 39.5236 25.8466 39.3655 26.4002 39.1905C26.688 39.0995 26.9904 39.0039 27.3245 38.9195C27.6504 38.8384 28.0732 38.6453 28.5464 38.4291C29.3311 38.0708 30.2546 37.649 31.1054 37.569C32.257 37.4622 34.528 37.637 35.1395 38.9078C32.9398 40.5809 30.302 41.5563 27.4723 41.5563C25.9453 41.5563 24.4743 41.2668 23.0985 40.7441Z" fill="#141414"/>
<path fill-rule="evenodd" clip-rule="evenodd" d="M2 0C0.89543 0 0 0.895432 0 2V53C0 54.1046 0.895432 55 2 55H53C54.1046 55 55 54.1046 55 53V2C55 0.89543 54.1046 0 53 0H2ZM43.6719 27.5C43.6719 18.5827 36.4177 11.3281 27.5008 11.3281C18.5815 11.3281 11.3281 18.5819 11.3281 27.5C11.3281 36.4181 18.5815 43.6719 27.5008 43.6719C36.4177 43.6719 43.6719 36.4173 43.6719 27.5Z" fill="#141414"/>
</svg>
