<svg width="55" height="55" viewBox="0 0 55 55" fill="none" xmlns="http://www.w3.org/2000/svg">
<path d="M23.9504 23.2055L33.0218 28.3663L23.9504 33.5268V23.2055Z" fill="#141414"/>
<path fill-rule="evenodd" clip-rule="evenodd" d="M2 0C0.89543 0 0 0.895432 0 2V53C0 54.1046 0.895432 55 2 55H53C54.1046 55 55 54.1046 55 53V2C55 0.89543 54.1046 0 53 0H2ZM44.1289 19.9578C43.7298 18.4548 42.5536 17.2711 41.0604 16.8694C38.3537 16.1394 27.5001 16.1394 27.5001 16.1394C27.5001 16.1394 16.6466 16.1394 13.9398 16.8694C12.4465 17.2711 11.2704 18.4548 10.8713 19.9578C10.146 22.6821 10.146 28.3661 10.146 28.3661C10.146 28.3661 10.146 34.0502 10.8713 36.7745C11.2704 38.2775 12.4465 39.4119 13.9398 39.8136C16.6466 40.5436 27.5001 40.5436 27.5001 40.5436C27.5001 40.5436 38.3536 40.5436 41.0604 39.8136C42.5536 39.4119 43.7298 38.2775 44.1289 36.7745C44.8542 34.0502 44.8542 28.3661 44.8542 28.3661C44.8542 28.3661 44.8542 22.6821 44.1289 19.9578Z" fill="#141414"/>
</svg>
